<svg xmlns="http://www.w3.org/2000/svg" viewBox="0 0 24 26" width="24" height="26">
	<style>
		tspan { white-space:pre }
		.shp0 { fill: #ffffff } 
	</style>
	<g id="0.8.0 - Home">
		<g id="Header">
			<path id="Composite Path" class="shp0" d="M10.26 1.59C14.66 1.59 18.94 4.47 18.94 10.22C18.94 15.96 14.66 18.84 10.26 18.84C5.86 18.84 1.58 15.96 1.58 10.22C1.58 4.47 5.86 1.59 10.26 1.59ZM10.26 0C5.19 0 0 3.4 0 10.22C0 17.03 5.19 20.43 10.26 20.43C12.17 20.43 14.09 19.95 15.75 18.99L22.42 26L24 24.41L17.56 17.64C19.34 15.94 20.52 13.47 20.52 10.22C20.52 3.4 15.33 0 10.26 0Z" />
		</g>
	</g>
</svg>