<svg xmlns="http://www.w3.org/2000/svg" viewBox="0 0 18 18" width="18" height="18">
	<style>
		tspan { white-space:pre }
		.shp0 { fill: #ffffff } 
	</style>
	<g id="0.8.0 - Home">
		<g id="Previous Rulings">
			<g id="1">
				<path id="Rectangle 9 copy 17" class="shp0" d="M4.21 7.99C6.33 4.95 7.09 4.08 6.96 2.32C6.83 0.56 7.19 0.08 8.05 -0.01C8.9 -0.09 10.5 0.36 10.79 3.24C10.91 4.49 9.99 6.94 9.99 6.94C9.99 6.94 15.82 6.95 16.39 6.95C17.29 6.95 18 7.32 18 8.53C18 9.65 16.72 9.99 16.72 9.99C16.72 9.99 17.54 10.3 17.54 11.25C17.54 12.21 16.69 12.64 16.13 12.64C16.48 12.81 16.96 13.14 16.86 13.96C16.75 14.78 16.15 15.08 15.56 15.25C15.94 15.48 16.22 16.12 16.01 16.61C15.72 17.27 14.96 18 13.26 18C11.2 18 5.54 18 5.31 18C4.71 18 4.26 17.73 4.17 17.4C4.17 16.72 4.17 8.36 4.17 8.36C4.17 8.36 4.17 8.07 4.21 7.99ZM0.5 7.41L3.62 7.41L3.62 18L0.5 18L0.5 7.41ZM0 7.41L3.13 7.41L3.13 18L0 18L0 7.41Z" />
			</g>
		</g>
	</g>
</svg>